<svg id="svg" version="1.1" xmlns="http://www.w3.org/2000/svg" xmlns:xlink="http://www.w3.org/1999/xlink" width="400" height="393.48534201954396" viewBox="0, 0, 400,393.48534201954396"><g id="svgg"><path id="path0" d="M197.972 5.445 C 196.964 6.240,195.459 7.456,194.625 8.148 C 191.354 10.866,187.129 14.105,185.630 15.044 C 184.764 15.587,183.461 16.587,182.734 17.267 C 182.007 17.948,181.243 18.504,181.034 18.504 C 180.559 18.504,177.863 20.496,177.441 21.159 C 177.268 21.431,176.914 21.665,176.654 21.678 C 176.394 21.692,174.941 22.568,173.425 23.625 C 171.909 24.683,169.429 26.295,167.913 27.208 C 166.398 28.120,165.016 29.104,164.843 29.394 C 164.669 29.684,164.383 29.921,164.206 29.921 C 163.683 29.921,158.097 33.207,157.785 33.698 C 157.628 33.946,156.919 34.383,156.210 34.669 C 155.501 34.955,153.415 36.099,151.575 37.211 C 149.734 38.323,147.210 39.736,145.965 40.350 C 144.719 40.965,143.701 41.616,143.701 41.797 C 143.701 41.978,143.518 42.126,143.294 42.126 C 142.798 42.126,135.716 45.625,135.436 46.009 C 135.326 46.159,133.907 46.862,132.283 47.570 C 130.659 48.279,127.804 49.646,125.939 50.610 C 124.074 51.574,122.341 52.362,122.090 52.362 C 121.838 52.362,120.352 53.002,118.788 53.783 C 117.224 54.564,114.085 55.909,111.811 56.770 C 109.537 57.632,107.494 58.488,107.270 58.674 C 107.046 58.859,104.496 59.817,101.605 60.802 C 98.713 61.787,96.150 62.754,95.910 62.952 C 95.669 63.149,92.992 64.039,89.961 64.930 C 86.929 65.821,83.917 66.793,83.268 67.091 C 82.618 67.389,78.986 68.398,75.197 69.335 C 71.407 70.272,68.219 71.154,68.110 71.296 C 67.887 71.587,51.039 74.803,49.733 74.803 C 49.266 74.803,48.825 74.959,48.753 75.149 C 48.616 75.509,38.793 76.813,30.315 77.595 C 27.608 77.845,20.610 78.160,14.764 78.296 L 4.134 78.543 4.134 135.597 C 4.134 174.037,4.265 192.695,4.536 192.785 C 4.756 192.858,6.617 191.305,8.669 189.332 C 10.722 187.359,13.426 184.833,14.679 183.719 C 15.931 182.605,17.615 181.066,18.419 180.299 C 19.224 179.532,20.374 178.595,20.974 178.217 C 21.575 177.838,22.727 176.827,23.533 175.969 C 24.340 175.112,25.190 174.410,25.422 174.410 C 25.654 174.410,26.675 173.612,27.692 172.638 C 28.709 171.663,29.652 170.866,29.786 170.866 C 29.921 170.866,31.214 169.910,32.660 168.742 C 34.106 167.573,36.296 165.974,37.527 165.186 C 38.757 164.399,39.764 163.621,39.764 163.458 C 39.764 163.294,40.871 162.518,42.224 161.735 C 43.578 160.951,45.040 159.973,45.473 159.561 C 45.907 159.149,47.589 158.026,49.211 157.064 C 50.833 156.102,52.427 155.081,52.753 154.796 C 53.584 154.068,59.465 150.570,62.992 148.706 C 64.616 147.847,66.122 146.944,66.339 146.700 C 66.555 146.456,68.150 145.593,69.882 144.783 C 71.614 143.974,73.351 143.038,73.742 142.704 C 74.505 142.052,77.664 140.575,81.004 139.309 C 82.141 138.879,83.071 138.387,83.071 138.217 C 83.071 138.047,84.798 137.230,86.909 136.402 C 89.021 135.575,91.722 134.412,92.913 133.819 C 95.015 132.772,98.485 131.429,101.068 130.662 C 101.764 130.455,102.428 130.133,102.543 129.946 C 102.659 129.760,105.367 128.772,108.562 127.752 C 111.756 126.731,114.551 125.750,114.773 125.572 C 115.164 125.258,118.099 124.410,124.606 122.732 C 126.339 122.285,127.844 121.799,127.953 121.653 C 128.163 121.369,136.852 119.366,142.717 118.249 C 144.665 117.878,146.348 117.454,146.457 117.307 C 146.869 116.748,166.161 114.121,174.044 113.550 C 176.086 113.402,177.943 113.134,178.172 112.954 C 179.535 111.885,219.450 111.879,221.850 112.948 C 222.283 113.140,225.827 113.587,229.724 113.940 C 235.712 114.482,243.868 115.537,251.575 116.766 C 252.549 116.921,253.435 117.167,253.543 117.311 C 253.652 117.456,255.335 117.875,257.283 118.244 C 263.045 119.333,271.835 121.361,272.047 121.651 C 272.156 121.798,273.661 122.285,275.394 122.732 C 281.890 124.408,284.836 125.258,285.227 125.571 C 285.449 125.748,288.240 126.723,291.430 127.737 C 294.620 128.751,297.328 129.739,297.448 129.933 C 297.568 130.127,298.236 130.455,298.932 130.662 C 301.181 131.330,304.876 132.731,306.494 133.530 C 307.361 133.959,310.020 135.108,312.402 136.085 C 314.783 137.061,316.998 138.078,317.323 138.343 C 317.648 138.609,319.729 139.597,321.949 140.539 C 324.168 141.481,325.984 142.364,325.984 142.502 C 325.984 142.639,327.623 143.541,329.626 144.506 C 331.629 145.470,333.329 146.399,333.404 146.569 C 333.478 146.739,334.807 147.515,336.356 148.294 C 337.906 149.073,339.883 150.197,340.750 150.792 C 341.618 151.387,343.390 152.446,344.687 153.146 C 345.985 153.845,347.313 154.671,347.638 154.981 C 347.963 155.292,349.469 156.275,350.984 157.166 C 352.500 158.058,353.829 158.893,353.937 159.022 C 354.360 159.526,356.972 161.325,358.563 162.208 C 359.483 162.719,360.236 163.276,360.236 163.446 C 360.236 163.616,361.243 164.399,362.473 165.186 C 363.704 165.974,365.894 167.573,367.340 168.742 C 368.786 169.910,370.079 170.866,370.214 170.866 C 370.348 170.866,371.291 171.663,372.308 172.638 C 373.325 173.612,374.378 174.409,374.648 174.409 C 374.919 174.409,375.520 174.893,375.984 175.483 C 376.449 176.074,377.586 177.095,378.511 177.753 C 379.436 178.411,380.836 179.566,381.620 180.321 C 382.405 181.076,384.057 182.579,385.290 183.661 C 386.524 184.744,389.190 187.224,391.215 189.173 C 393.240 191.122,395.114 192.717,395.381 192.717 C 395.763 192.717,395.866 180.587,395.866 135.630 L 395.866 78.543 385.236 78.296 C 379.390 78.160,372.392 77.845,369.685 77.595 C 362.216 76.906,351.403 75.524,351.181 75.231 C 351.073 75.088,349.656 74.754,348.031 74.489 C 342.530 73.592,332.088 71.512,331.890 71.274 C 331.781 71.144,328.593 70.272,324.803 69.335 C 321.014 68.398,317.382 67.389,316.732 67.091 C 316.083 66.793,313.071 65.821,310.039 64.930 C 307.008 64.039,304.331 63.149,304.090 62.952 C 303.850 62.754,301.287 61.787,298.395 60.802 C 295.504 59.817,292.954 58.859,292.730 58.674 C 292.506 58.489,290.463 57.628,288.189 56.761 C 285.915 55.894,282.776 54.550,281.212 53.773 C 279.648 52.997,278.162 52.362,277.910 52.362 C 277.659 52.362,275.926 51.574,274.061 50.610 C 272.196 49.646,269.341 48.279,267.717 47.570 C 266.093 46.862,264.674 46.159,264.564 46.009 C 264.284 45.625,257.202 42.126,256.706 42.126 C 256.482 42.126,256.299 41.962,256.299 41.761 C 256.299 41.561,255.281 40.909,254.035 40.314 C 252.790 39.719,250.072 38.200,247.995 36.939 C 245.918 35.677,244.047 34.646,243.837 34.646 C 243.627 34.646,243.080 34.296,242.621 33.868 C 241.900 33.196,240.131 32.144,236.260 30.082 C 235.740 29.806,235.208 29.433,235.079 29.254 C 234.771 28.831,231.592 26.772,231.246 26.772 C 231.100 26.772,230.343 26.284,229.566 25.689 C 227.715 24.272,223.673 21.657,223.313 21.643 C 223.158 21.637,222.541 21.131,221.941 20.519 C 221.341 19.908,220.042 18.991,219.054 18.483 C 218.066 17.975,217.050 17.270,216.798 16.917 C 216.545 16.564,215.807 15.937,215.157 15.523 C 213.364 14.380,205.899 8.691,204.752 7.593 C 204.195 7.060,203.091 6.204,202.297 5.690 C 201.503 5.177,200.740 4.572,200.600 4.347 C 200.232 3.750,199.995 3.849,197.972 5.445 M189.567 180.548 C 176.161 181.367,159.303 183.384,158.661 184.245 C 158.553 184.391,156.781 184.823,154.724 185.206 C 149.415 186.194,142.067 188.061,140.715 188.766 C 140.084 189.096,139.331 189.366,139.043 189.368 C 138.147 189.372,129.430 192.110,128.892 192.557 C 128.612 192.789,127.622 193.216,126.692 193.506 C 123.612 194.464,118.349 196.465,118.129 196.762 C 118.011 196.923,116.850 197.473,115.551 197.985 C 112.557 199.164,102.877 203.838,101.575 204.733 C 101.033 205.106,98.952 206.252,96.949 207.282 C 94.946 208.311,93.307 209.308,93.307 209.498 C 93.307 209.687,93.121 209.843,92.894 209.843 C 92.668 209.843,91.513 210.463,90.328 211.220 C 89.143 211.978,88.009 212.598,87.807 212.598 C 87.606 212.598,87.299 212.841,87.126 213.137 C 86.953 213.434,85.812 214.237,84.591 214.922 C 83.369 215.607,81.899 216.605,81.322 217.139 C 80.746 217.673,80.167 218.110,80.035 218.110 C 79.904 218.110,78.857 218.819,77.710 219.685 C 76.563 220.551,75.434 221.260,75.201 221.260 C 74.969 221.260,74.679 221.519,74.557 221.837 C 74.435 222.154,73.361 223.061,72.169 223.852 C 70.977 224.643,69.547 225.801,68.991 226.425 C 68.435 227.049,67.787 227.559,67.552 227.559 C 67.316 227.559,66.108 228.489,64.867 229.626 C 63.626 230.763,61.603 232.579,60.371 233.661 C 58.250 235.524,49.301 244.350,45.198 248.623 C 44.158 249.706,43.307 250.810,43.307 251.075 C 43.307 251.340,42.846 251.859,42.282 252.228 C 41.718 252.598,40.531 253.886,39.643 255.092 C 38.755 256.297,37.622 257.606,37.124 258.001 C 36.627 258.396,36.220 258.930,36.220 259.189 C 36.220 259.448,35.460 260.542,34.531 261.621 C 32.686 263.763,29.921 267.496,29.921 267.843 C 29.921 267.963,29.393 268.640,28.747 269.347 C 28.101 270.055,27.299 271.209,26.966 271.912 C 26.632 272.615,25.887 273.752,25.310 274.437 C 24.193 275.764,22.804 278.080,21.807 280.276 C 21.144 281.737,23.331 286.792,25.230 288.189 C 25.377 288.297,26.330 289.605,27.348 291.095 C 28.366 292.585,29.558 294.179,29.996 294.638 C 30.435 295.097,31.212 296.125,31.723 296.922 C 32.234 297.719,33.367 299.032,34.240 299.839 C 35.113 300.647,35.827 301.533,35.827 301.809 C 35.827 302.084,36.624 302.963,37.598 303.761 C 38.573 304.560,39.370 305.395,39.370 305.616 C 39.370 306.136,49.800 316.535,50.321 316.535 C 50.537 316.535,51.456 317.421,52.362 318.504 C 53.269 319.587,54.241 320.472,54.523 320.472 C 54.806 320.472,55.548 321.048,56.172 321.752 C 56.797 322.456,58.276 323.781,59.461 324.698 C 60.645 325.614,63.209 327.627,65.157 329.171 C 72.914 335.315,73.497 335.488,74.794 332.020 C 75.265 330.763,75.786 329.644,75.954 329.533 C 76.121 329.422,77.037 327.736,77.989 325.787 C 78.942 323.839,79.969 321.984,80.272 321.666 C 80.576 321.348,81.108 320.462,81.455 319.696 C 82.109 318.255,83.843 315.306,84.240 314.961 C 84.364 314.852,85.251 313.524,86.210 312.008 C 87.169 310.492,88.259 308.947,88.633 308.574 C 89.007 308.201,89.963 306.917,90.758 305.720 C 91.552 304.523,92.365 303.543,92.564 303.543 C 92.762 303.543,93.275 302.968,93.703 302.264 C 96.019 298.455,109.679 284.916,114.269 281.880 C 115.079 281.344,115.744 280.778,115.745 280.622 C 115.747 280.467,116.716 279.720,117.900 278.963 C 119.083 278.206,120.393 277.245,120.810 276.828 C 121.227 276.411,122.961 275.227,124.662 274.199 C 126.364 273.170,127.844 272.201,127.953 272.046 C 128.061 271.892,129.390 271.100,130.906 270.287 C 132.421 269.475,134.813 268.143,136.220 267.329 C 137.628 266.514,139.222 265.718,139.764 265.560 C 140.305 265.402,141.811 264.698,143.110 263.997 C 144.409 263.295,147.156 262.130,149.213 261.406 C 151.270 260.683,153.045 259.957,153.159 259.793 C 153.412 259.426,163.346 256.502,165.650 256.117 C 166.570 255.962,167.323 255.695,167.323 255.522 C 167.323 255.349,167.810 255.121,168.406 255.016 C 192.676 250.723,207.816 250.569,228.150 254.410 C 230.531 254.860,232.569 255.344,232.677 255.485 C 232.785 255.627,234.911 256.248,237.402 256.865 C 242.557 258.143,246.561 259.395,246.850 259.819 C 246.959 259.978,247.402 260.208,247.835 260.330 C 249.943 260.925,255.338 263.063,256.437 263.741 C 257.119 264.161,258.652 264.888,259.843 265.355 C 261.033 265.823,262.982 266.794,264.173 267.512 C 265.364 268.230,267.579 269.481,269.094 270.292 C 270.610 271.102,271.939 271.892,272.047 272.046 C 272.156 272.201,273.661 273.182,275.394 274.227 C 277.126 275.271,278.720 276.345,278.937 276.612 C 279.154 276.879,280.176 277.625,281.209 278.269 C 282.242 278.913,283.836 280.091,284.752 280.886 C 285.668 281.682,288.100 283.764,290.157 285.512 C 295.175 289.778,302.502 297.247,305.528 301.180 C 306.277 302.154,307.184 303.171,307.544 303.441 C 307.903 303.711,308.731 304.799,309.383 305.859 C 310.035 306.919,310.901 308.116,311.308 308.519 C 311.714 308.922,312.831 310.492,313.790 312.008 C 314.749 313.524,315.631 314.852,315.749 314.961 C 316.114 315.296,317.236 317.145,318.534 319.549 C 319.217 320.815,319.899 321.939,320.048 322.047 C 320.198 322.156,321.090 323.839,322.030 325.787 C 322.971 327.736,323.878 329.422,324.046 329.533 C 324.213 329.644,324.730 330.748,325.193 331.986 C 326.530 335.559,326.490 335.568,333.782 329.928 C 336.447 327.867,339.566 325.472,340.713 324.606 C 341.860 323.740,343.283 322.456,343.875 321.752 C 344.467 321.048,345.190 320.472,345.481 320.472 C 345.772 320.472,346.664 319.675,347.462 318.701 C 348.260 317.726,349.094 316.929,349.315 316.929 C 349.840 316.929,360.630 306.139,360.630 305.614 C 360.630 305.394,361.427 304.560,362.402 303.761 C 363.376 302.963,364.173 302.068,364.173 301.774 C 364.173 301.479,364.773 300.738,365.506 300.127 C 366.238 299.516,367.313 298.307,367.894 297.441 C 368.475 296.575,369.426 295.338,370.007 294.691 C 370.588 294.045,371.790 292.420,372.678 291.080 C 373.567 289.739,374.584 288.351,374.940 287.996 C 375.826 287.110,378.740 282.071,378.739 281.427 C 378.739 281.140,378.119 279.878,377.361 278.622 C 376.604 277.366,375.984 276.210,375.984 276.052 C 375.984 275.895,375.459 275.191,374.818 274.489 C 374.176 273.786,373.356 272.589,372.995 271.829 C 372.634 271.069,371.830 269.902,371.209 269.237 C 370.587 268.571,370.079 267.937,370.079 267.826 C 370.079 267.513,367.341 263.797,365.470 261.572 C 364.540 260.466,363.780 259.371,363.780 259.140 C 363.780 258.908,363.373 258.396,362.876 258.001 C 362.378 257.606,361.225 256.270,360.313 255.032 C 359.401 253.793,358.301 252.591,357.870 252.360 C 357.439 252.130,357.088 251.726,357.089 251.463 C 357.091 251.199,356.236 250.098,355.190 249.016 C 350.329 243.983,341.674 235.438,339.638 233.661 C 338.397 232.579,336.567 230.928,335.570 229.993 C 334.573 229.058,333.071 227.860,332.233 227.330 C 331.395 226.801,330.709 226.208,330.709 226.013 C 330.709 225.818,329.867 225.132,328.839 224.490 C 327.810 223.847,326.567 222.936,326.076 222.466 C 324.930 221.367,320.179 218.110,319.723 218.110 C 319.532 218.110,319.279 217.859,319.161 217.551 C 319.043 217.244,317.711 216.271,316.200 215.388 C 314.689 214.506,313.394 213.649,313.321 213.483 C 313.159 213.114,307.510 209.843,307.035 209.843 C 306.847 209.843,306.693 209.687,306.693 209.498 C 306.693 209.308,305.054 208.314,303.051 207.287 C 301.048 206.261,299.144 205.198,298.819 204.926 C 298.055 204.285,287.519 199.197,284.449 197.986 C 283.150 197.474,281.989 196.923,281.871 196.762 C 281.651 196.465,276.388 194.464,273.308 193.506 C 272.378 193.216,271.388 192.789,271.108 192.557 C 270.570 192.110,261.853 189.372,260.957 189.368 C 260.669 189.366,259.918 189.097,259.288 188.768 C 257.916 188.053,251.969 186.515,246.379 185.430 C 244.148 184.997,241.969 184.475,241.535 184.269 C 240.059 183.569,228.216 181.897,219.094 181.102 C 214.220 180.676,193.750 180.293,189.567 180.548 M189.764 320.303 C 185.589 320.837,180.284 321.969,179.921 322.402 C 179.813 322.532,177.953 323.228,175.787 323.949 C 173.622 324.671,171.275 325.557,170.571 325.918 C 165.577 328.481,162.696 330.126,162.091 330.759 C 161.704 331.164,160.730 331.833,159.926 332.245 C 157.195 333.645,148.049 342.264,145.263 346.063 C 144.390 347.254,143.322 348.671,142.890 349.213 C 140.925 351.675,137.299 358.378,135.756 362.402 C 135.258 363.701,134.709 364.867,134.537 364.992 C 133.718 365.591,133.738 368.110,134.561 368.110 C 135.005 368.110,135.427 368.282,135.499 368.492 C 135.615 368.830,138.723 370.070,144.094 371.923 C 145.069 372.259,145.955 372.657,146.063 372.807 C 146.171 372.957,148.652 373.866,151.575 374.827 C 154.498 375.788,156.991 376.711,157.114 376.877 C 157.238 377.044,159.984 377.976,163.217 378.949 C 166.450 379.922,169.428 380.909,169.835 381.142 C 170.605 381.584,171.132 381.741,178.937 383.844 C 181.535 384.545,183.750 385.243,183.858 385.397 C 183.967 385.551,187.244 386.464,191.142 387.425 C 195.039 388.387,198.287 389.306,198.360 389.469 C 198.537 389.868,201.475 389.846,201.640 389.444 C 201.713 389.269,203.012 388.849,204.528 388.513 C 209.411 387.428,215.939 385.662,216.152 385.368 C 216.265 385.211,217.151 384.895,218.120 384.666 C 219.089 384.437,221.122 383.894,222.638 383.460 C 224.154 383.025,226.301 382.422,227.411 382.118 C 228.520 381.814,229.760 381.374,230.167 381.141 C 230.573 380.908,233.550 379.922,236.783 378.949 C 240.016 377.976,242.762 377.044,242.886 376.877 C 243.009 376.711,245.502 375.788,248.425 374.827 C 251.348 373.866,253.829 372.957,253.937 372.807 C 254.045 372.657,254.931 372.259,255.906 371.923 C 261.277 370.070,264.385 368.830,264.501 368.492 C 264.573 368.282,264.995 368.110,265.439 368.110 C 266.273 368.110,266.276 365.563,265.442 364.992 C 265.258 364.867,264.691 363.612,264.182 362.205 C 263.000 358.939,261.865 356.652,260.082 353.946 C 259.301 352.760,258.661 351.592,258.661 351.350 C 258.661 351.109,258.135 350.307,257.492 349.570 C 256.849 348.832,255.609 347.254,254.736 346.063 C 251.953 342.267,242.806 333.646,240.074 332.245 C 239.270 331.833,238.296 331.165,237.909 330.762 C 237.522 330.359,235.876 329.332,234.252 328.481 C 232.628 327.629,230.856 326.648,230.315 326.299 C 229.774 325.951,227.293 324.985,224.803 324.152 C 222.313 323.319,220.187 322.534,220.079 322.407 C 218.381 320.418,199.240 319.090,189.764 320.303 " stroke="none" fill="#0494ec" fill-rule="evenodd"></path><path id="path1" d="" stroke="none" fill="#0894ec" fill-rule="evenodd"></path><path id="path2" d="" stroke="none" fill="#0894ec" fill-rule="evenodd"></path><path id="path3" d="" stroke="none" fill="#0894ec" fill-rule="evenodd"></path><path id="path4" d="" stroke="none" fill="#0894ec" fill-rule="evenodd"></path></g></svg>